<?xml version="1.0" encoding="utf-8"?>
<!-- Generator: Adobe Illustrator 26.0.1, SVG Export Plug-In . SVG Version: 6.00 Build 0)  -->
<svg version="1.1" id="Layer_1" xmlns="http://www.w3.org/2000/svg" xmlns:xlink="http://www.w3.org/1999/xlink" x="0px" y="0px" width="700" height="300"
	 viewBox="0 0 700 300" style="enable-background:new 0 0 700 300;" xml:space="preserve">
<style type="text/css">
	.st0{fill:#FFFFFF;}
	.st1{fill:#FD8524;}
</style>
<rect width="700" height="300"/>
<g>
	<g>
		<path class="st0" d="M228.4,141.4h-36.2v-21.7h23.5c5,0,8.8-3.7,8.8-8.6c0-5-3.8-8.7-8.8-8.7h-23.5V85.3h34.5c5.2,0,9.3-4,9.3-9.1
			c0-5.3-3.9-9.1-9.3-9.1h-44.6c-5.7,0-10,4.3-10,10v72.7c0,5.7,4.3,10,10,10h46.3c5.3,0,9.3-3.9,9.3-9.1
			C237.6,145.3,233.7,141.4,228.4,141.4"/>
		<path class="st0" d="M293.3,84.1c8.7,0,16,3.4,21.7,10c2.2,2.5,4.9,3.8,7.7,3.8c5.2,0,9.4-4.1,9.4-9.1c0-2.6-1-5-3.1-7.4
			c-8.3-10-21.7-16-35.8-16c-27.7,0-49.3,21.1-49.3,47.9c0,26.9,21.6,47.9,49.2,47.9c14.2,0,27.6-6,35.8-16c2.1-2.5,3.1-4.8,3.1-7.4
			c0-5-4.2-9.1-9.3-9.1c-2.9,0-5.4,1.2-7.8,3.8c-5.9,6.7-13,10-21.6,10c-16.6,0-28.7-12.3-28.7-29.1
			C264.6,96.4,276.6,84.1,293.3,84.1"/>
		<path class="st0" d="M391.9,142.6c-16.8,0-28.6-12-28.6-29.3c0-17.2,11.8-29.3,28.6-29.3c16.6,0,28.6,12.3,28.6,29.3
			S408.5,142.6,391.9,142.6 M391.8,65.4c-27.5,0-49,21.1-49,47.9s21.5,47.9,49,47.9c27.7,0,49.3-21.1,49.3-47.9
			S419.4,65.4,391.8,65.4"/>
		<path class="st0" d="M606.6,141.4h-36.2v-21.7h23.5c5,0,8.8-3.7,8.8-8.6c0-5-3.8-8.7-8.8-8.7h-23.5V85.3H605c5.2,0,9.3-4,9.3-9.1
			c0-5.3-3.9-9.1-9.3-9.1h-44.6c-5.7,0-10,4.3-10,10v72.7c0,5.7,4.3,10,10,10h46.3c5.3,0,9.3-3.9,9.3-9.1
			C615.9,145.3,611.9,141.4,606.6,141.4"/>
		<path class="st0" d="M485.8,67h-20.4c-5.6,0-10.2,4.6-10.2,10.2v15.6v5.2v30.5v8.5v12.3c0,5.6,4.6,10.2,10.2,10.2h20.4
			c29.6,0,50.3-19.1,50.3-46.6C536.1,85.5,515.9,67,485.8,67z M485.6,141.4h-10.5v-4.2v-8.5V98.1v-5.2v-7.5h10.5
			c18.5,0,30,10.6,30,27.8C515.6,130.3,503.8,141.4,485.6,141.4z"/>
		<path class="st0" d="M154.3,144.6l-16-22.2c8.8-5.4,13.9-14.6,13.9-25.3c0-8.7-3.2-16.2-9.3-21.7c-6.1-5.4-14.4-8.3-24.1-8.3H94
			c-5.9,0-10.2,4.2-10.2,10.1v4.7v3.1c0,5.5,4.5,10,10,10c5.5,0,10-4.5,10-10h0h2h12.9c8,0,13.1,4.8,13.1,12.3
			c0,7.7-5,12.4-13.1,12.4h-12.9h-2h0c0-5.5-4.5-10-10-10c-5.5,0-10,4.5-10,10v3.7V151c0,5.8,4.3,10.2,10.1,10.2
			c5.6,0,10-4.5,10-10.2v-23.6h14.8l20.2,28.7c2.4,3.4,5.4,5.1,8.9,5.1c5.1,0,9.4-4.2,9.4-9.3C157.1,149.8,156.2,147.3,154.3,144.6z
			"/>
	</g>
	<g>
		<path class="st1" d="M471.8,244.4c0,4.1-0.7,7.2-2.1,9.2c-1.4,2-3.5,3-6.3,3c-2.8,0-4.9-1-6.3-3c-1.4-2-2-5.1-2-9.2v-56
			c0-4.1,0.7-7.1,2-9.1c1.4-2,3.4-3,6.3-3c1.7,0,3.2,0.4,4.5,1.3c1.3,0.9,2.5,2.2,3.5,4c1.7-1.9,3.7-3.3,6.1-4.3
			c2.3-1,4.9-1.4,7.7-1.4c7.2,0,13.2,2.8,18.1,8.4c4.9,5.6,7.3,12.5,7.3,20.9c0,8.3-2.5,15.4-7.5,21.2c-5,5.8-11,8.7-18.1,8.7
			c-2.5,0-4.8-0.4-7-1.2c-2.2-0.8-4.2-2-6.1-3.6V244.4z M471.5,205.4c0,4.3,1,7.7,3,10.3c2,2.6,4.7,3.9,7.9,3.9c3.3,0,5.9-1.3,8-3.9
			c2-2.6,3-6,3-10.3c0-4.1-1-7.4-3.1-10c-2.1-2.6-4.7-3.9-7.9-3.9c-3.2,0-5.8,1.3-7.9,3.9C472.5,197.9,471.5,201.3,471.5,205.4z"/>
		<path class="st1" d="M520.9,221.9v-33.5c0-4.1,0.7-7.1,2-9.1c1.4-2,3.4-3,6.3-3c1.7,0,3.2,0.4,4.5,1.3c1.3,0.9,2.5,2.2,3.5,4
			c1.7-1.9,3.5-3.3,5.5-4.2c1.9-0.9,3.9-1.4,5.8-1.4c2.3,0,4.3,0.8,6,2.5c1.7,1.6,2.5,3.6,2.5,5.8c0,3.3-3.1,6.1-9.2,8.4
			c-2.2,0.8-3.9,1.4-5,2c-2.1,1-3.5,2.1-4.2,3.3c-0.7,1.2-1,3.4-1,6.6v17.4c0,4.1-0.7,7.1-2.1,9.1s-3.5,3-6.3,3c-2.8,0-4.9-1-6.3-3
			C521.6,229.1,520.9,226,520.9,221.9z"/>
		<path class="st1" d="M559.9,205.2c0-8.7,2.7-15.8,8-21.4s12.1-8.4,20.3-8.4c8.2,0,15,2.8,20.2,8.4c5.3,5.6,7.9,12.7,7.9,21.4
			c0,8.7-2.6,15.9-7.9,21.5c-5.3,5.6-12,8.4-20.2,8.4c-8.2,0-14.9-2.8-20.3-8.4S559.9,213.9,559.9,205.2z M577.1,205
			c0,4.3,1,7.7,3,10.3c2,2.6,4.7,3.9,7.9,3.9c3.3,0,5.9-1.3,8-3.9c2-2.6,3-6,3-10.3c0-4.1-1-7.4-3.1-10c-2.1-2.6-4.7-3.9-7.9-3.9
			c-3.2,0-5.9,1.3-7.9,3.9C578.1,197.5,577.1,200.8,577.1,205z"/>
	</g>
</g>
</svg>
